<?xml version="1.0" standalone="no"?>
<!DOCTYPE svg PUBLIC "-//W3C//DTD SVG 20010904//EN"
 "http://www.w3.org/TR/2001/REC-SVG-20010904/DTD/svg10.dtd">
<svg version="1.0" xmlns="http://www.w3.org/2000/svg"
 width="768.000000pt" height="768.000000pt" viewBox="0 0 768.000000 768.000000"
 preserveAspectRatio="xMidYMid meet">

<g transform="translate(0.000000,768.000000) scale(0.100000,-0.100000)"
fill="#000000" stroke="none">
<path d="M4061 7639 c29 -29 21 -55 -16 -51 -80 9 -119 4 -136 -17 -9 -11 -29
-21 -43 -21 -14 0 -41 -14 -61 -31 -46 -41 -48 -84 -4 -134 17 -19 37 -35 44
-35 7 0 15 -17 19 -37 8 -52 52 -142 71 -149 21 -9 65 15 59 31 -3 7 6 25 20
40 20 21 26 39 26 71 0 36 -3 42 -16 37 -10 -4 -14 -14 -11 -30 3 -17 -3 -29
-21 -43 -31 -25 -43 -25 -70 0 -33 31 -28 43 13 36 20 -4 35 -3 35 2 0 12 -25
22 -55 22 -28 0 -41 41 -30 93 9 37 20 47 57 47 64 0 78 -27 19 -36 -56 -9
-68 -18 -51 -39 10 -12 24 -15 46 -12 17 3 43 -1 58 -8 30 -16 29 -19 30 80 1
65 3 70 24 73 23 4 42 36 42 73 0 23 -34 59 -55 59 -12 0 -10 -5 6 -21z"/>
<path d="M2900 7564 c-74 -19 -203 -57 -287 -85 l-152 -51 -3 -593 c-2 -326
-6 -597 -10 -601 -9 -8 -187 11 -301 32 -48 9 -84 11 -94 6 -20 -12 -4 -16
136 -33 71 -9 97 -16 80 -20 -17 -5 -19 -7 -6 -8 10 -1 15 -5 12 -11 -3 -5 -3
-10 2 -10 4 -1 34 -3 66 -6 35 -4 63 -2 71 5 7 6 16 8 19 4 13 -12 7 -251 -8
-336 -34 -198 -112 -372 -245 -552 -44 -59 -80 -113 -80 -121 0 -8 -7 -14 -16
-14 -10 0 -14 6 -11 18 25 90 29 119 18 157 -15 58 -59 96 -115 102 -59 7 -85
0 -132 -37 -36 -29 -39 -30 -51 -13 -26 37 -35 43 -69 43 -41 0 -74 -15 -74
-34 0 -8 -6 -19 -13 -25 -8 -6 -19 -29 -26 -51 -7 -23 -20 -44 -29 -47 -139
-49 -182 -97 -184 -206 -1 -59 1 -62 37 -94 20 -18 65 -43 99 -56 46 -17 62
-28 64 -45 4 -25 34 -45 56 -36 8 3 26 28 40 56 l25 49 -21 54 c-26 69 -20 85
32 85 32 0 48 7 79 36 22 19 41 45 43 57 2 12 10 23 18 24 30 6 43 -15 46 -67
1 -31 9 -59 19 -70 23 -25 11 -58 -23 -66 -54 -13 -82 -42 -82 -83 0 -44 7
-51 107 -109 78 -46 112 -83 166 -182 44 -80 72 -173 87 -281 9 -66 9 -84 -2
-91 -13 -10 -857 -2 -866 7 -3 3 2 40 11 83 9 42 17 85 17 95 0 10 -18 45 -40
77 -88 129 -124 263 -140 516 -6 98 -15 203 -21 232 -28 143 -116 342 -199
453 -50 66 -233 249 -269 269 -18 9 -28 -2 -100 -119 -511 -822 -695 -1809
-514 -2756 5 -22 10 226 13 550 l5 590 528 3 c290 1 527 0 527 -4 0 -19 -41
-335 -45 -346 -2 -7 -9 -49 -14 -93 -21 -163 -103 -724 -127 -865 -8 -47 -21
-123 -29 -170 -8 -47 -26 -152 -40 -235 -14 -82 -34 -199 -45 -260 -52 -290
-71 -417 -65 -423 4 -4 462 -7 1018 -7 720 1 938 -2 757 -7 -140 -5 -645 -7
-1122 -6 -822 3 -866 2 -857 -14 6 -12 23 -18 47 -19 l37 -2 -35 -7 -35 -7 45
-2 c25 -2 39 -5 32 -8 -6 -2 -12 -9 -12 -13 0 -9 519 -17 760 -11 113 2 133 1
122 -11 -11 -10 -90 -13 -413 -11 -219 1 -397 -2 -395 -6 3 -4 -16 -4 -42 0
-26 4 -48 6 -49 5 -4 -4 100 -150 170 -241 339 -434 774 -801 1251 -1055 l116
-62 0 44 c1 88 20 454 26 481 6 29 13 30 89 10 l20 -5 -20 17 -20 17 20 -7
c47 -17 58 -18 51 -7 -4 7 -21 16 -39 21 l-32 9 40 2 c33 1 36 3 20 11 -16 7
-13 8 11 3 23 -4 33 -1 38 11 5 14 8 14 27 -4 25 -23 23 -63 -9 -186 -12 -44
-37 -159 -56 -255 -20 -96 -38 -185 -41 -196 -4 -19 9 -27 123 -71 143 -57
352 -126 441 -147 l59 -14 17 44 c22 59 30 204 16 290 -14 79 -44 169 -80 234
-30 55 -167 192 -210 209 -17 8 -28 17 -26 22 6 9 70 -24 97 -50 31 -29 47
-41 58 -41 5 0 10 -7 10 -15 0 -10 10 -15 28 -16 20 0 23 -2 9 -7 -16 -7 -16
-9 3 -25 13 -11 20 -13 20 -4 1 6 7 -1 14 -18 7 -16 12 -33 10 -36 -2 -4 3 -9
11 -13 8 -3 15 -13 15 -21 0 -9 4 -13 10 -10 6 4 9 -4 7 -17 -1 -17 3 -22 16
-20 19 3 24 -24 5 -31 -10 -3 -10 -9 0 -26 13 -22 21 -56 27 -111 1 -14 6 -33
10 -43 4 -9 4 -48 -1 -85 -4 -37 -8 -76 -9 -87 0 -11 -4 -31 -9 -43 -4 -13 -5
-39 -2 -57 6 -32 9 -34 79 -49 91 -19 219 -41 322 -55 68 -10 404 -31 487 -31
l28 0 -3 914 c-1 503 -5 917 -8 920 -3 3 -244 7 -535 8 -291 2 -466 5 -389 8
l140 5 -5 1615 c-2 888 -5 1878 -5 2200 0 322 -1 888 -3 1258 -2 633 -3 672
-19 671 -10 0 -79 -16 -153 -35z m-565 -1364 c-3 -5 -10 -10 -16 -10 -5 0 -9
5 -9 10 0 6 7 10 16 10 8 0 12 -4 9 -10z m-677 -2622 c5 -7 10 -43 11 -80 1
-60 -2 -69 -23 -83 -20 -14 -23 -21 -18 -68 2 -30 13 -66 26 -84 21 -33 36
-42 36 -23 0 33 127 -20 187 -78 76 -75 125 -176 169 -351 32 -127 33 -190 4
-231 -28 -40 -56 -50 -135 -50 l-63 0 -7 173 c-3 94 -5 183 -3 197 2 20 -1 25
-19 24 -13 0 -158 -1 -323 -2 l-300 -2 0 -73 c0 -41 -3 -129 -7 -195 l-6 -122
-64 0 c-58 0 -68 3 -94 29 -54 55 -37 128 90 379 54 105 83 150 119 184 62 58
127 95 204 117 50 14 68 24 86 51 34 51 29 86 -19 129 l-41 36 21 27 c12 14
21 35 21 46 0 32 46 62 95 62 23 0 47 -6 53 -12z m-183 -864 c25 -10 37 -50
23 -79 -11 -24 -25 -30 -58 -25 -32 5 -42 67 -14 94 17 18 24 19 49 10z m-670
-898 c-46 -20 -118 -29 -113 -14 2 6 27 13 58 15 29 2 56 5 58 8 3 3 10 5 16
4 6 0 -2 -6 -19 -13z m2745 -3 l-35 -16 30 -7 c24 -6 25 -8 8 -9 -13 0 -23 -6
-23 -12 0 -6 19 -10 48 -8 68 2 82 0 82 -12 0 -8 -14 -10 -43 -6 -58 8 -90 -1
-84 -24 7 -25 -17 -30 -175 -36 -99 -4 -138 -2 -138 6 0 6 13 11 29 11 17 0
33 5 36 10 3 6 42 10 86 10 51 0 78 4 74 10 -4 6 -55 10 -121 10 -107 0 -114
-1 -114 -20 0 -17 -7 -20 -40 -20 -22 0 -40 5 -40 10 0 6 -73 10 -200 10 -127
0 -200 4 -200 10 0 12 45 14 236 11 135 -3 152 -2 157 14 11 26 -1 35 -36 29
-25 -3 -28 -2 -12 5 11 5 47 8 80 5 l60 -3 -53 8 c-29 5 -55 11 -57 13 -2 2
37 3 88 2 l92 -1 -75 7 c-52 4 -5 7 150 8 214 1 223 0 190 -15z m-2667 0 c-7
-2 -21 -2 -30 0 -10 3 -4 5 12 5 17 0 24 -2 18 -5z m2207 -3 c0 -5 -10 -10
-22 -9 -22 0 -22 1 -3 9 11 5 21 9 23 9 1 1 2 -3 2 -9z m-1637 -7 c-13 -2 -35
-2 -50 0 -16 2 -5 4 22 4 28 0 40 -2 28 -4z m2177 -3 c27 -17 1 -23 -32 -7
-31 16 -31 17 -8 17 14 0 32 -4 40 -10z m-2750 -10 c0 -5 -22 -10 -50 -10 -27
0 -50 5 -50 10 0 6 23 10 50 10 28 0 50 -4 50 -10z m120 6 c0 -3 -4 -8 -10
-11 -5 -3 -10 -1 -10 4 0 6 5 11 10 11 6 0 10 -2 10 -4z m118 -3 c-10 -2 -26
-2 -35 0 -10 3 -2 5 17 5 19 0 27 -2 18 -5z m1922 0 c0 -5 -24 -7 -52 -5 -95
5 -104 9 -25 11 42 0 77 -2 77 -6z m-2283 -9 c-3 -3 -12 -4 -19 -1 -8 3 -5 6
6 6 11 1 17 -2 13 -5z m1686 -1 c-7 -2 -19 -2 -25 0 -7 3 -2 5 12 5 14 0 19
-2 13 -5z m165 0 c-21 -2 -57 -2 -80 0 -24 2 -7 4 37 4 44 0 63 -2 43 -4z
m185 0 c-13 -2 -33 -2 -45 0 -13 2 -3 4 22 4 25 0 35 -2 23 -4z m-1423 -73 c0
-5 -16 -10 -35 -10 -19 0 -35 5 -35 10 0 6 16 10 35 10 19 0 35 -4 35 -10z
m-322 -17 c2 -9 -8 -13 -32 -13 -20 0 -36 4 -36 9 0 6 -19 12 -42 14 -24 2
-10 4 31 3 50 -1 76 -5 79 -13z m2599 11 c-3 -3 -12 -4 -19 -1 -8 3 -5 6 6 6
11 1 17 -2 13 -5z m-2357 -14 c0 -5 -18 -10 -40 -10 -22 0 -40 5 -40 10 0 6
18 10 40 10 22 0 40 -4 40 -10z m887 -266 c-3 -3 -12 -4 -19 -1 -8 3 -5 6 6 6
11 1 17 -2 13 -5z m155 -3 c-9 -5 1 -8 27 -8 22 0 51 -7 64 -16 24 -15 53 -90
42 -107 -13 -21 -25 -9 -25 24 0 19 -9 45 -21 60 -20 25 -27 27 -82 25 -38 -2
-62 2 -64 8 -4 10 9 14 62 21 6 1 4 -2 -3 -7z m162 -195 c-3 -9 -10 -16 -16
-16 -5 0 -6 6 -1 13 4 6 6 21 5 32 -2 18 -1 18 8 3 5 -9 7 -23 4 -32z m796
-76 c0 -5 -18 -10 -40 -10 -22 0 -40 -4 -40 -10 0 -5 -16 -10 -35 -10 -19 0
-35 5 -35 10 0 6 16 10 35 10 19 0 35 5 35 10 0 6 18 10 40 10 22 0 40 -4 40
-10z m-970 -60 c0 -5 -5 -10 -11 -10 -5 0 -7 5 -4 10 3 6 8 10 11 10 2 0 4 -4
4 -10z m205 -130 c-3 -5 -10 -10 -16 -10 -5 0 -9 5 -9 10 0 6 7 10 16 10 8 0
12 -4 9 -10z m101 -38 c-11 -12 -18 -11 -42 1 l-29 15 42 -1 c35 -2 40 -4 29
-15z"/>
<path d="M1561 3554 c-28 -36 -26 -44 9 -44 25 0 30 -4 30 -25 0 -16 6 -25 15
-25 12 0 15 12 14 53 0 28 -3 47 -6 40 -3 -10 -7 -10 -18 0 -7 7 -11 15 -8 20
12 19 -18 4 -36 -19z"/>
<path d="M3408 1813 c18 -2 45 -2 60 0 15 2 0 4 -33 4 -33 0 -45 -2 -27 -4z"/>
<path d="M3280 1781 c0 -5 9 -7 20 -4 11 3 20 7 20 9 0 2 -9 4 -20 4 -11 0
-20 -4 -20 -9z"/>
<path d="M1801 7095 c-283 -178 -579 -424 -787 -656 -59 -65 -112 -126 -120
-137 -13 -18 0 -19 553 -15 l565 3 62 30 c74 35 152 113 192 191 36 72 45 214
19 305 -37 131 -124 233 -251 297 -113 57 -114 57 -233 -18z m-183 -578 c32
-67 -51 -134 -92 -75 -21 30 -20 50 5 82 28 36 68 32 87 -7z"/>
<path d="M1562 6484 c3 -17 21 -21 26 -6 1 5 -4 12 -13 16 -11 4 -15 1 -13
-10z"/>
<path d="M4140 7077 c10 -36 26 -268 36 -519 l7 -168 198 0 198 0 6 -33 c4
-18 5 -39 3 -47 -3 -13 56 -16 417 -21 582 -9 557 -8 550 -19 -3 -5 -19 -10
-35 -10 -76 0 -303 -71 -420 -130 -232 -118 -446 -335 -536 -542 -9 -21 -20
-38 -25 -38 -5 0 -9 -8 -9 -18 0 -10 -7 -27 -15 -38 -8 -10 -15 -31 -15 -46 0
-16 -4 -28 -9 -28 -13 0 -49 -155 -62 -267 -6 -55 -9 -149 -5 -215 6 -131 7
-130 -58 -103 l-36 15 0 83 c0 45 -3 92 -6 104 -4 13 -29 39 -56 59 l-50 35
20 22 c25 26 45 109 37 148 -8 35 -58 79 -91 79 -36 0 -74 -45 -74 -88 0 -27
8 -42 36 -68 l37 -33 -52 -50 c-54 -52 -61 -74 -40 -128 l11 -28 18 23 c24 29
34 28 26 -4 -8 -32 1 -64 19 -64 7 0 15 9 18 20 7 27 21 25 42 -6 10 -16 13
-30 7 -37 -14 -18 -24 -155 -12 -162 5 -3 15 -15 21 -26 10 -19 8 -20 -18 -17
-20 2 -28 -1 -28 -12 0 -8 6 -15 14 -15 18 0 27 -25 9 -26 -7 0 -4 -4 7 -8 24
-10 45 13 37 41 -5 19 7 24 23 9 6 -4 31 -16 56 -25 l46 -17 22 -152 c12 -84
25 -172 29 -197 l7 -45 130 0 c72 0 144 2 160 5 l30 5 3 -1202 2 -1203 793 -1
c435 -1 864 -4 951 -8 l159 -6 -1 -305 -2 -305 36 40 c92 103 242 298 328 428
53 79 96 146 96 150 0 4 -70 8 -156 9 l-156 3 67 88 c114 151 253 274 424 373
96 56 93 50 171 284 204 610 251 1242 140 1890 -106 621 -383 1230 -785 1729
-55 68 -108 135 -118 148 l-19 23 -25 -20 c-21 -17 -40 -20 -112 -20 -89 1
-149 16 -182 46 -33 30 -21 31 54 7 89 -30 208 -36 232 -12 14 14 2 29 -142
170 -168 164 -309 282 -482 402 -170 119 -153 112 -186 80 -38 -39 -70 -90
-91 -151 l-19 -52 -87 0 -87 0 -3 -122 -3 -123 -552 -3 c-545 -2 -552 -2 -558
18 -4 13 -15 20 -31 20 -21 0 -24 3 -18 26 6 23 4 25 -13 20 -17 -5 -22 2 -37
56 -31 108 -58 181 -83 225 -24 42 -84 102 -121 122 -19 10 -20 9 -12 -22z
m1884 -473 c36 -35 10 -104 -38 -104 -34 0 -52 29 -47 77 2 18 31 43 51 43 10
0 26 -7 34 -16z m326 -134 c0 -10 -4 -22 -10 -25 -6 -4 -10 7 -10 25 0 18 4
29 10 25 6 -3 10 -15 10 -25z m50 -880 c19 -38 20 -41 3 -116 -16 -73 -44
-127 -58 -112 -4 3 -2 15 4 26 6 12 11 30 11 41 0 17 -6 21 -30 21 -20 0 -30
5 -30 15 0 13 7 15 34 10 29 -6 37 -3 51 19 35 52 -6 71 -84 40 -22 -9 -43
-25 -46 -35 -11 -33 -21 -12 -23 45 -2 69 17 86 95 86 51 0 53 -1 73 -40z
m-190 -111 c0 -36 -2 -39 -15 -25 -15 15 -20 57 -9 69 14 13 24 -6 24 -44z
m59 -19 c12 -6 17 -17 14 -32 -3 -15 3 -30 16 -42 27 -24 27 -40 0 -26 -24 13
-59 68 -59 93 0 20 4 21 29 7z m57 -195 c20 -20 38 -19 30 1 -3 8 -2 12 4 9
24 -15 9 -35 -24 -35 -19 0 -37 -4 -41 -9 -8 -15 63 -25 79 -12 17 15 28 3 16
-19 -22 -41 -98 -30 -119 17 -19 42 -14 63 15 63 14 0 32 -7 40 -15z m303
-107 c132 -63 222 -199 261 -395 21 -108 26 -212 11 -241 -6 -9 -30 -60 -54
-112 -24 -52 -57 -107 -73 -121 -29 -26 -31 -26 -235 -33 -114 -3 -322 -3
-464 1 l-256 6 -30 51 c-16 28 -43 95 -61 148 l-31 98 17 126 c42 318 151 458
407 524 84 22 119 25 119 10 0 -6 11 -22 25 -35 42 -43 138 -29 157 23 l11 28
66 -24 c36 -13 95 -37 130 -54z m-409 -1463 c12 -37 23 -41 64 -25 33 12 42
-3 16 -28 -16 -14 -22 -35 -25 -75 -1 -30 -8 -65 -15 -77 -9 -16 -9 -25 -1
-33 6 -6 11 -21 11 -34 0 -13 5 -23 10 -23 6 0 10 -13 10 -29 0 -32 30 -61 63
-61 10 0 25 -6 33 -14 7 -8 22 -12 33 -9 36 9 166 -117 210 -205 82 -163 132
-577 72 -600 -9 -3 -21 -12 -26 -20 -11 -13 -65 -8 -65 7 0 14 -44 9 -55 -6
-10 -13 -16 -13 -34 -3 -13 6 -44 10 -70 8 -50 -5 -290 17 -331 30 -29 10 -77
9 -87 -1 -3 -4 -40 -7 -81 -7 -51 0 -81 -5 -91 -14 -20 -18 -197 -69 -211 -61
-5 3 -10 14 -10 23 0 20 -26 112 -90 322 -68 219 -94 310 -89 314 2 2 45 17
94 34 387 131 476 171 549 246 28 30 58 67 66 83 8 15 25 40 39 56 18 19 21
27 10 27 -8 0 -19 -4 -24 -9 -6 -4 -22 -11 -37 -15 -21 -5 -30 -1 -42 16 -23
33 -21 95 3 108 13 7 22 7 26 0 3 -5 22 -10 41 -10 l35 0 -16 30 c-9 17 -23
30 -35 30 -28 0 -34 18 -14 41 27 30 51 24 64 -16z m-146 -1227 c-2 -4 10 -8
28 -10 26 -2 32 -7 30 -22 -3 -16 1 -18 31 -13 21 3 42 0 54 -8 19 -13 123
-25 123 -14 0 4 30 10 68 13 37 4 86 9 109 12 l42 5 11 -43 c6 -24 15 -56 21
-72 5 -16 8 -30 7 -31 -2 -1 -41 -7 -88 -13 -47 -6 -163 -23 -259 -37 -95 -14
-176 -25 -180 -25 -4 0 -12 46 -18 103 -7 56 -14 116 -17 133 -4 28 -2 32 19
30 13 0 21 -4 19 -8z m394 -35 c-10 -2 -28 -2 -40 0 -13 2 -5 4 17 4 22 1 32
-1 23 -4z m-583 -233 c3 -5 1 -10 -4 -10 -6 0 -11 5 -11 10 0 6 2 10 4 10 3 0
8 -4 11 -10z m270 -30 c-3 -5 -18 -10 -33 -9 -24 0 -25 1 -7 9 28 12 47 12 40
0z"/>
<path d="M6508 2493 c6 -2 18 -2 25 0 6 3 1 5 -13 5 -14 0 -19 -2 -12 -5z"/>
<path d="M3587 7057 c-151 -117 -210 -250 -211 -473 -1 -115 0 -123 29 -179
39 -77 80 -105 152 -105 l53 0 -6 53 c-13 118 23 620 52 725 9 32 -7 27 -69
-21z"/>
<path d="M3930 7090 c0 -5 7 -10 15 -10 8 0 15 5 15 10 0 6 -7 10 -15 10 -8 0
-15 -4 -15 -10z"/>
<path d="M3900 6560 c0 -20 5 -30 15 -30 10 0 15 10 15 30 0 20 -5 30 -15 30
-10 0 -15 -10 -15 -30z"/>
<path d="M868 6229 c-43 -22 -47 -28 -18 -26 11 1 20 5 20 9 0 4 6 8 14 8 7 0
19 7 26 15 17 20 3 18 -42 -6z"/>
<path d="M868 6008 c-13 -3 60 -7 162 -8 102 -1 255 -3 340 -4 152 -2 180 0
180 13 0 8 -652 8 -682 -1z"/>
<path d="M1678 6003 c45 -2 119 -2 165 0 45 1 8 3 -83 3 -91 0 -128 -2 -82 -3z"/>
<path d="M1958 6003 c12 -2 32 -2 45 0 12 2 2 4 -23 4 -25 0 -35 -2 -22 -4z"/>
<path d="M2158 6003 c45 -2 119 -2 165 0 45 1 8 3 -83 3 -91 0 -128 -2 -82 -3z"/>
<path d="M1860 5055 c0 -8 5 -15 10 -15 6 0 10 7 10 15 0 8 -4 15 -10 15 -5 0
-10 -7 -10 -15z"/>
<path d="M3837 4539 c-71 -61 -133 -123 -139 -137 -13 -35 14 -87 61 -119 29
-20 47 -23 126 -23 l92 0 6 128 c10 196 9 262 -5 262 -7 0 -71 -50 -141 -111z"/>
<path d="M3752 3762 c-25 -27 -33 -29 -103 -29 -92 -1 -121 -16 -145 -78 -30
-79 -1 -139 85 -175 41 -16 50 -7 59 56 7 48 8 49 45 52 40 3 67 -11 67 -34 0
-10 -11 -12 -44 -8 -51 7 -66 -7 -31 -30 15 -10 26 -12 30 -6 3 6 15 10 27 10
17 0 19 -4 14 -27 -4 -16 -8 -43 -9 -60 -4 -46 -20 -60 -52 -43 -14 7 -25 21
-25 31 0 10 -4 21 -10 24 -5 3 -10 -1 -10 -9 0 -30 19 -64 49 -85 l30 -21 24
26 c16 17 27 44 31 75 6 42 10 49 29 49 40 1 106 38 127 72 39 64 23 114 -59
191 -60 56 -90 60 -129 19z"/>
<path d="M3760 3206 c0 -33 18 -43 35 -20 12 16 12 21 -2 32 -25 18 -33 15
-33 -12z"/>
<path d="M5395 1200 c-32 -13 -62 -51 -89 -113 -32 -71 -32 -93 -3 -111 35
-22 97 -28 104 -10 3 9 1 20 -6 27 -16 16 -14 37 4 37 11 0 14 7 9 24 -4 19 0
28 20 41 13 9 35 15 48 13 19 -2 23 -9 23 -40 0 -20 6 -43 13 -49 17 -18 15
-50 -5 -65 -12 -8 -15 -16 -8 -23 7 -7 20 -4 42 10 32 21 32 21 18 56 -8 19
-12 39 -9 44 3 5 2 34 -1 64 -10 74 -39 105 -97 104 -24 0 -52 -4 -63 -9z"/>
<path d="M5458 1003 c7 -3 16 -2 19 1 4 3 -2 6 -13 5 -11 0 -14 -3 -6 -6z"/>
<path d="M2354 955 c-20 -15 -11 -18 20 -6 11 4 15 10 9 14 -5 3 -19 0 -29 -8z"/>
<path d="M5424 929 c-10 -17 13 -36 27 -22 12 12 4 33 -11 33 -5 0 -12 -5 -16
-11z"/>
<path d="M5468 893 c7 -3 16 -2 19 1 4 3 -2 6 -13 5 -11 0 -14 -3 -6 -6z"/>
<path d="M5300 778 c-154 -91 -245 -166 -319 -265 -28 -37 -59 -88 -68 -112
l-17 -44 31 -26 c18 -15 57 -35 87 -45 l56 -19 39 42 c22 24 44 40 50 37 5 -4
7 -29 4 -61 l-6 -54 84 33 c137 54 247 104 364 165 150 79 285 160 285 171 0
20 -285 190 -319 190 -8 0 -11 -8 -8 -20 7 -29 -16 -48 -67 -55 -59 -9 -132
22 -142 59 -7 30 -8 31 -54 4z"/>
</g>
</svg>
